<?xml version="1.0" encoding="UTF-8" standalone="no"?>
<!DOCTYPE svg PUBLIC "-//W3C//DTD SVG 1.1//EN"
 "http://www.w3.org/Graphics/SVG/1.1/DTD/svg11.dtd">
<!-- Generated by graphviz version 2.38.0 (20140413.2041)
 -->
<!-- Title: ROSnodes Pages: 1 -->
<svg width="1765pt" height="264pt"
 viewBox="0.00 0.00 1765.00 264.00" xmlns="http://www.w3.org/2000/svg" xmlns:xlink="http://www.w3.org/1999/xlink">
<g id="graph0" class="graph" transform="scale(1 1) rotate(0) translate(4 260)">
<title>ROSnodes</title>
<polygon fill="white" stroke="none" points="-4,4 -4,-260 1761,-260 1761,4 -4,4"/>
<!-- 1 -->
<g id="node1" class="node"><title>1</title>
<ellipse fill="lightblue" stroke="lightblue" cx="1313.5" cy="-220" rx="36" ry="36"/>
<text text-anchor="middle" x="1313.5" y="-223.8" font-family="Times New Roman,serif" font-size="14.00">mission</text>
<text text-anchor="middle" x="1313.5" y="-208.8" font-family="Times New Roman,serif" font-size="14.00">Planner</text>
</g>
<!-- 2 -->
<g id="node2" class="node"><title>2</title>
<ellipse fill="lightblue" stroke="lightblue" cx="1552" cy="-184" rx="36" ry="36"/>
<text text-anchor="middle" x="1552" y="-187.8" font-family="Times New Roman,serif" font-size="14.00">fligth</text>
<text text-anchor="middle" x="1552" y="-172.8" font-family="Times New Roman,serif" font-size="14.00">Controller</text>
</g>
<!-- 1&#45;&gt;2 -->
<g id="edge3" class="edge"><title>1&#45;&gt;2</title>
<path fill="none" stroke="black" d="M1344.05,-200.567C1357.49,-192.855 1373.94,-184.902 1390,-181 1428.36,-171.677 1473.39,-173.553 1506.06,-177.109"/>
<polygon fill="black" stroke="black" points="1505.87,-180.61 1516.21,-178.31 1506.69,-173.659 1505.87,-180.61"/>
<text text-anchor="middle" x="1444" y="-184.8" font-family="Times New Roman,serif" font-size="14.00">actionRequest</text>
</g>
<!-- 2&#45;&gt;1 -->
<g id="edge2" class="edge"><title>2&#45;&gt;1</title>
<path fill="none" stroke="black" d="M1517.59,-195.103C1511.15,-196.956 1504.4,-198.696 1498,-200 1451.36,-209.497 1397.06,-214.707 1359.7,-217.407"/>
<polygon fill="black" stroke="black" points="1359.37,-213.921 1349.63,-218.103 1359.85,-220.905 1359.37,-213.921"/>
<text text-anchor="middle" x="1444" y="-217.8" font-family="Times New Roman,serif" font-size="14.00">actionConfirmation</text>
</g>
<!-- 3 -->
<g id="node3" class="node"><title>3</title>
<ellipse fill="lightblue" stroke="lightblue" cx="1721" cy="-184" rx="36" ry="36"/>
<text text-anchor="middle" x="1721" y="-187.8" font-family="Times New Roman,serif" font-size="14.00">pilot</text>
<text text-anchor="middle" x="1721" y="-172.8" font-family="Times New Roman,serif" font-size="14.00">Driver</text>
</g>
<!-- 2&#45;&gt;3 -->
<g id="edge1" class="edge"><title>2&#45;&gt;3</title>
<path fill="none" stroke="black" d="M1588.01,-184C1613.2,-184 1647.39,-184 1674.67,-184"/>
<polygon fill="black" stroke="black" points="1674.75,-187.5 1684.75,-184 1674.75,-180.5 1674.75,-187.5"/>
<text text-anchor="middle" x="1636.5" y="-187.8" font-family="Times New Roman,serif" font-size="14.00">fligthOrder</text>
</g>
<!-- 4 -->
<g id="node4" class="node"><title>4</title>
<ellipse fill="lightblue" stroke="lightblue" cx="36" cy="-193" rx="36" ry="36"/>
<text text-anchor="middle" x="36" y="-196.8" font-family="Times New Roman,serif" font-size="14.00">camera</text>
<text text-anchor="middle" x="36" y="-181.8" font-family="Times New Roman,serif" font-size="14.00">Driver</text>
</g>
<!-- 5 -->
<g id="node5" class="node"><title>5</title>
<ellipse fill="lightblue" stroke="lightblue" cx="247" cy="-193" rx="36" ry="36"/>
<text text-anchor="middle" x="247" y="-196.8" font-family="Times New Roman,serif" font-size="14.00">camera</text>
<text text-anchor="middle" x="247" y="-181.8" font-family="Times New Roman,serif" font-size="14.00">Processor</text>
</g>
<!-- 4&#45;&gt;5 -->
<g id="edge12" class="edge"><title>4&#45;&gt;5</title>
<path fill="none" stroke="black" d="M72.454,-193C107.69,-193 161.884,-193 200.325,-193"/>
<polygon fill="black" stroke="black" points="200.721,-196.5 210.721,-193 200.721,-189.5 200.721,-196.5"/>
<text text-anchor="middle" x="141.5" y="-196.8" font-family="Times New Roman,serif" font-size="14.00">realImageOnFligth</text>
</g>
<!-- 6 -->
<g id="node6" class="node"><title>6</title>
<ellipse fill="lightblue" stroke="lightblue" cx="812.5" cy="-211" rx="36" ry="36"/>
<text text-anchor="middle" x="812.5" y="-214.8" font-family="Times New Roman,serif" font-size="14.00">robot</text>
<text text-anchor="middle" x="812.5" y="-199.8" font-family="Times New Roman,serif" font-size="14.00">Detector</text>
</g>
<!-- 5&#45;&gt;6 -->
<g id="edge14" class="edge"><title>5&#45;&gt;6</title>
<path fill="none" stroke="black" d="M283.051,-195.883C289.036,-196.308 295.194,-196.701 301,-197 472.623,-205.825 677.007,-209.312 766.16,-210.485"/>
<polygon fill="black" stroke="black" points="766.155,-213.985 776.199,-210.614 766.245,-206.986 766.155,-213.985"/>
<text text-anchor="middle" x="530.5" y="-210.8" font-family="Times New Roman,serif" font-size="14.00">cameraFrameAbstraction</text>
</g>
<!-- 7 -->
<g id="node7" class="node"><title>7</title>
<ellipse fill="lightblue" stroke="lightblue" cx="530.5" cy="-139" rx="36" ry="36"/>
<text text-anchor="middle" x="530.5" y="-142.8" font-family="Times New Roman,serif" font-size="14.00">grid</text>
<text text-anchor="middle" x="530.5" y="-127.8" font-family="Times New Roman,serif" font-size="14.00">Detector</text>
</g>
<!-- 5&#45;&gt;7 -->
<g id="edge13" class="edge"><title>5&#45;&gt;7</title>
<path fill="none" stroke="black" d="M282.478,-185.747C288.642,-184.478 295.008,-183.186 301,-182 364.873,-169.363 438.971,-155.579 485.051,-147.111"/>
<polygon fill="black" stroke="black" points="485.804,-150.531 495.008,-145.284 484.541,-143.646 485.804,-150.531"/>
<text text-anchor="middle" x="371.5" y="-185.8" font-family="Times New Roman,serif" font-size="14.00">cameraFrameAbstraction</text>
</g>
<!-- 8 -->
<g id="node8" class="node"><title>8</title>
<ellipse fill="lightblue" stroke="lightblue" cx="1066" cy="-167" rx="36" ry="36"/>
<text text-anchor="middle" x="1066" y="-178.3" font-family="Times New Roman,serif" font-size="14.00">state</text>
<text text-anchor="middle" x="1066" y="-163.3" font-family="Times New Roman,serif" font-size="14.00">Map</text>
<text text-anchor="middle" x="1066" y="-148.3" font-family="Times New Roman,serif" font-size="14.00">Estimator</text>
</g>
<!-- 6&#45;&gt;8 -->
<g id="edge6" class="edge"><title>6&#45;&gt;8</title>
<path fill="none" stroke="black" d="M848.206,-204.928C892.992,-197.093 970.986,-183.448 1020.2,-174.837"/>
<polygon fill="black" stroke="black" points="1021,-178.251 1030.25,-173.08 1019.79,-171.356 1021,-178.251"/>
<text text-anchor="middle" x="950" y="-199.8" font-family="Times New Roman,serif" font-size="14.00">robotStateAbstraction</text>
</g>
<!-- 7&#45;&gt;6 -->
<g id="edge8" class="edge"><title>7&#45;&gt;6</title>
<path fill="none" stroke="black" d="M565.985,-145.892C620.176,-156.771 720.796,-177.187 737,-182 747.798,-185.207 759.237,-189.296 769.825,-193.384"/>
<polygon fill="black" stroke="black" points="768.68,-196.695 779.267,-197.113 771.252,-190.184 768.68,-196.695"/>
<text text-anchor="middle" x="678" y="-185.8" font-family="Times New Roman,serif" font-size="14.00">gridStateAbstraction</text>
</g>
<!-- 7&#45;&gt;8 -->
<g id="edge7" class="edge"><title>7&#45;&gt;8</title>
<path fill="none" stroke="black" d="M566.611,-139.708C628.119,-141.067 759.345,-144.502 870,-151 921.361,-154.016 980.207,-159.064 1019.7,-162.684"/>
<polygon fill="black" stroke="black" points="1019.53,-166.183 1029.81,-163.618 1020.17,-159.212 1019.53,-166.183"/>
<text text-anchor="middle" x="812.5" y="-154.8" font-family="Times New Roman,serif" font-size="14.00">gridStateAbstraction</text>
</g>
<!-- 9 -->
<g id="node9" class="node"><title>9</title>
<ellipse fill="lightblue" stroke="lightblue" cx="812.5" cy="-70" rx="36" ry="36"/>
<text text-anchor="middle" x="812.5" y="-73.8" font-family="Times New Roman,serif" font-size="14.00">pose</text>
<text text-anchor="middle" x="812.5" y="-58.8" font-family="Times New Roman,serif" font-size="14.00">Estimator</text>
</g>
<!-- 7&#45;&gt;9 -->
<g id="edge9" class="edge"><title>7&#45;&gt;9</title>
<path fill="none" stroke="black" d="M556.65,-114.145C572.958,-99.7857 595.487,-83.0207 619,-75 667.464,-58.4682 726.845,-59.9288 766.731,-63.7697"/>
<polygon fill="black" stroke="black" points="766.372,-67.2512 776.683,-64.8165 767.104,-60.2896 766.372,-67.2512"/>
<text text-anchor="middle" x="678" y="-78.8" font-family="Times New Roman,serif" font-size="14.00">UAVPositionMap</text>
</g>
<!-- 8&#45;&gt;1 -->
<g id="edge4" class="edge"><title>8&#45;&gt;1</title>
<path fill="none" stroke="black" d="M1101.39,-174.425C1145.01,-183.841 1220.28,-200.09 1268.16,-210.428"/>
<polygon fill="black" stroke="black" points="1267.43,-213.85 1277.94,-212.54 1268.91,-207.008 1267.43,-213.85"/>
<text text-anchor="middle" x="1178.5" y="-205.8" font-family="Times New Roman,serif" font-size="14.00">stateMapAbstraction</text>
</g>
<!-- 8&#45;&gt;2 -->
<g id="edge5" class="edge"><title>8&#45;&gt;2</title>
<path fill="none" stroke="black" d="M1101.95,-163.709C1175.73,-157.55 1352.56,-146.96 1498,-171 1500.99,-171.494 1504.06,-172.067 1507.14,-172.692"/>
<polygon fill="black" stroke="black" points="1506.43,-176.12 1516.95,-174.832 1507.92,-169.281 1506.43,-176.12"/>
<text text-anchor="middle" x="1313.5" y="-161.8" font-family="Times New Roman,serif" font-size="14.00">stateMapAbstraction</text>
</g>
<!-- 9&#45;&gt;7 -->
<g id="edge10" class="edge"><title>9&#45;&gt;7</title>
<path fill="none" stroke="black" d="M777.504,-79.6619C764.838,-83.1201 750.308,-86.9206 737,-90 684.944,-102.045 670.891,-100.265 619,-113 604.51,-116.556 588.843,-121.013 574.825,-125.228"/>
<polygon fill="black" stroke="black" points="573.495,-121.974 564.949,-128.237 575.535,-128.67 573.495,-121.974"/>
<text text-anchor="middle" x="678" y="-116.8" font-family="Times New Roman,serif" font-size="14.00">UAVPositionChange</text>
</g>
<!-- 10 -->
<g id="node10" class="node"><title>10</title>
<ellipse fill="lightblue" stroke="lightblue" cx="530.5" cy="-36" rx="36" ry="36"/>
<text text-anchor="middle" x="530.5" y="-39.8" font-family="Times New Roman,serif" font-size="14.00">odometry</text>
<text text-anchor="middle" x="530.5" y="-24.8" font-family="Times New Roman,serif" font-size="14.00">Driver</text>
</g>
<!-- 10&#45;&gt;9 -->
<g id="edge11" class="edge"><title>10&#45;&gt;9</title>
<path fill="none" stroke="black" d="M566.509,-31.8595C607.786,-27.963 678.216,-24.4139 737,-37 748.555,-39.4739 760.501,-43.8468 771.352,-48.616"/>
<polygon fill="black" stroke="black" points="770.024,-51.8576 780.57,-52.8715 772.958,-45.5021 770.024,-51.8576"/>
<text text-anchor="middle" x="678" y="-40.8" font-family="Times New Roman,serif" font-size="14.00">odometryChange</text>
</g>
</g>
</svg>
